<svg xmlns="http://www.w3.org/2000/svg" width="477" height="210" viewBox="0 0 477 210">
  <g id="Сгруппировать_3" data-name="Сгруппировать 3" transform="translate(-1316.69 -449)" opacity="0.96">
    <g id="Сгруппировать_2" data-name="Сгруппировать 2" transform="translate(1316.69 410)">
      <g id="Сгруппировать_1" data-name="Сгруппировать 1" transform="translate(0 0)">
        <path id="mug" d="M117.652,210H49.366A49.347,49.347,0,0,1,0,160.781V82.852A28.786,28.786,0,0,1,28.8,54.141H138.221a28.786,28.786,0,0,1,28.8,28.711V130.84c-.434,10.884-16.024,10.876-16.455,0V82.852a12.337,12.337,0,0,0-12.341-12.3H28.8a12.337,12.337,0,0,0-12.341,12.3v77.929a32.9,32.9,0,0,0,32.909,32.812h68.287a33,33,0,0,0,31.682-23.9,23.525,23.525,0,0,1,22.516-17.119,22.309,22.309,0,0,0,22.317-22.251V108.281a8.225,8.225,0,0,0-8.227-8.2,8.2,8.2,0,1,1,0-16.406,24.674,24.674,0,0,1,24.682,24.609v22.046a38.758,38.758,0,0,1-38.771,38.657,6.931,6.931,0,0,0-6.676,5.16A49.511,49.511,0,0,1,117.652,210ZM90.091,14.337a5.254,5.254,0,0,1,.845-2.018A8.221,8.221,0,0,0,76.7,4.089c-5.925,10.186-1.746,17.162.262,20.515.2.335.448.747.628,1.076a8.164,8.164,0,0,1-.474.735,8.219,8.219,0,0,0,13.4,9.518c6.743-9.438,2.574-16.4.571-19.741a12.42,12.42,0,0,1-1-1.854Zm-31.91,1.853c2,3.344,6.172,10.3-.571,19.741a8.219,8.219,0,0,1-13.4-9.518,8.164,8.164,0,0,0,.474-.735c-.18-.328-.427-.741-.628-1.076-2.008-3.353-6.187-10.328-.262-20.515a8.221,8.221,0,0,1,14.234,8.231,5.254,5.254,0,0,0-.845,2.018,12.457,12.457,0,0,0,1,1.854Zm64.837,19.741a8.219,8.219,0,0,1-13.4-9.518,8.159,8.159,0,0,0,.474-.735c-.18-.328-.427-.741-.628-1.076-2.008-3.353-6.187-10.328-.262-20.515a8.221,8.221,0,0,1,14.234,8.231,5.254,5.254,0,0,0-.845,2.018,12.548,12.548,0,0,0,1,1.853C125.592,19.535,129.761,26.494,123.018,35.932Z" transform="translate(-0.002 39.001)" fill="#5a4946"/>
        <text id="EPIC_Ceramic_Mug" data-name="EPIC
Ceramic
Mug" transform="translate(179 39)" fill="#5a4946" font-size="65" font-family="Italiana-Regular, Italiana"><tspan x="84.215" y="60">EPIC</tspan><tspan x="40.145" y="125">Ceramic</tspan><tspan x="90.422" y="190">Mug</tspan></text>
      </g>
    </g>
  </g>
</svg>
