<svg height="480pt" viewBox="0 -48 480 480" width="480pt" xmlns="http://www.w3.org/2000/svg"><path d="m24 344h432c8.835938 0 16 7.164062 16 16s-7.164062 16-16 16h-432c-8.835938 0-16-7.164062-16-16s7.164062-16 16-16zm0 0" fill="#5a6470"/><path d="m104 104h272v208h-272zm0 0" fill="#d3843d"/><path d="m104 312h272l-16 32h-240zm0 0" fill="#995f5b"/><path d="m408 144h-32v32h32v64h-32v32h36.664062c15.097657 0 27.335938-12.238281 27.335938-27.335938v-73.328124c0-15.097657-12.238281-27.335938-27.335938-27.335938zm0 0" fill="#995f5b"/><g fill="#f49e21"><path d="m200 80h-16c-.117188-5.988281 1.421875-11.890625 4.449219-17.054688 3.460937-5.933593 3.460937-13.269531 0-19.203124-3.03125-5.167969-4.570313-11.074219-4.449219-17.0625-.125-5.996094 1.417969-11.90625 4.449219-17.078126 1.796875-2.875 2.699219-6.214843 2.589843-9.601562h16c.125 5.996094-1.414062 11.90625-4.445312 17.078125-1.800781 2.875-2.703125 6.214844-2.59375 9.601563-.105469 3.386718.796875 6.726562 2.59375 9.601562 3.027344 5.167969 4.566406 11.078125 4.445312 17.070312.121094 5.988282-1.417968 11.890626-4.445312 17.054688-1.800781 2.871094-2.703125 6.210938-2.59375 9.59375zm0 0"/><path d="m248 80h-16c-.117188-5.988281 1.421875-11.890625 4.449219-17.054688 3.460937-5.933593 3.460937-13.269531 0-19.203124-3.03125-5.167969-4.570313-11.074219-4.449219-17.0625-.125-5.996094 1.417969-11.90625 4.449219-17.078126 1.796875-2.875 2.699219-6.214843 2.589843-9.601562h16c.125 5.996094-1.414062 11.90625-4.445312 17.078125-1.800781 2.875-2.703125 6.214844-2.59375 9.601563-.105469 3.386718.796875 6.726562 2.59375 9.601562 3.027344 5.167969 4.566406 11.078125 4.445312 17.070312.121094 5.988282-1.417968 11.890626-4.445312 17.054688-1.800781 2.871094-2.703125 6.210938-2.59375 9.59375zm0 0"/><path d="m296 80h-16c-.117188-5.988281 1.421875-11.890625 4.449219-17.054688 3.460937-5.933593 3.460937-13.269531 0-19.203124-3.03125-5.167969-4.570313-11.074219-4.449219-17.0625-.125-5.996094 1.417969-11.90625 4.449219-17.078126 1.796875-2.875 2.699219-6.214843 2.589843-9.601562h16c.125 5.996094-1.414062 11.90625-4.445312 17.078125-1.800781 2.875-2.703125 6.214844-2.59375 9.601563-.105469 3.386718.796875 6.726562 2.59375 9.601562 3.027344 5.167969 4.566406 11.078125 4.445312 17.070312.121094 5.988282-1.417968 11.890626-4.445312 17.054688-1.800781 2.871094-2.703125 6.210938-2.59375 9.59375zm0 0"/></g><path d="m24 384h432c13.253906 0 24-10.746094 24-24s-10.746094-24-24-24h-83.054688l10.253907-20.425781c.046875-.09375.058593-.199219.105469-.292969.046874-.097656.109374-.351562.183593-.527344.25-.902344.417969-1.824218.511719-2.753906v-32h28.664062c19.507813-.019531 35.316407-15.828125 35.335938-35.335938v-73.328124c-.019531-19.507813-15.828125-35.316407-35.335938-35.335938h-28.664062v-32c0-4.417969-3.582031-8-8-8h-272c-4.417969 0-8 3.582031-8 8v208c.105469.929688.289062 1.851562.550781 2.753906.074219.175782.113281.359375.183594.527344.074219.167969.058594.199219.105469.292969l10.214844 20.425781h-83.054688c-13.253906 0-24 10.746094-24 24s10.746094 24 24 24zm360-200h16v48h-16zm28.664062-32c10.675782.007812 19.328126 8.660156 19.335938 19.335938v73.328124c-.007812 10.675782-8.660156 19.328126-19.335938 19.335938h-28.664062v-16h24c4.417969 0 8-3.582031 8-8v-64c0-4.417969-3.582031-8-8-8h-24v-16zm-300.664062-40h256v192h-256zm4.945312 208h246.109376l-8 16h-230.109376zm-92.945312 32h432c4.417969 0 8 3.582031 8 8s-3.582031 8-8 8h-432c-4.417969 0-8-3.582031-8-8s3.582031-8 8-8zm0 0"/><path d="m207.039062 0h-16c.109376 3.386719-.792968 6.726562-2.589843 9.601562-3.03125 5.171876-4.574219 11.082032-4.449219 17.078126-.125 5.996093 1.417969 11.90625 4.449219 17.082031 3.460937 5.929687 3.460937 13.265625 0 19.199219-3.027344 5.160156-4.566407 11.058593-4.449219 17.039062h16c-.109375-3.386719.792969-6.730469 2.59375-9.601562 3.027344-5.164063 4.566406-11.066407 4.445312-17.054688.121094-5.992188-1.417968-11.902344-4.445312-17.070312-1.796875-2.875-2.699219-6.214844-2.59375-9.601563-.109375-3.386719.792969-6.726563 2.59375-9.601563 3.027344-5.167968 4.566406-11.078124 4.445312-17.070312zm0 0"/><path d="m255.039062 0h-16c.109376 3.386719-.792968 6.726562-2.589843 9.601562-3.03125 5.171876-4.574219 11.082032-4.449219 17.078126-.125 5.996093 1.417969 11.90625 4.449219 17.082031 3.460937 5.929687 3.460937 13.265625 0 19.199219-3.027344 5.160156-4.566407 11.058593-4.449219 17.039062h16c-.109375-3.386719.792969-6.730469 2.59375-9.601562 3.027344-5.164063 4.566406-11.066407 4.445312-17.054688.121094-5.992188-1.417968-11.902344-4.445312-17.070312-1.796875-2.875-2.699219-6.214844-2.59375-9.601563-.109375-3.386719.792969-6.726563 2.59375-9.601563 3.027344-5.167968 4.566406-11.078124 4.445312-17.070312zm0 0"/><path d="m303.039062 0h-16c.109376 3.386719-.792968 6.726562-2.589843 9.601562-3.03125 5.171876-4.574219 11.082032-4.449219 17.078126-.125 5.996093 1.417969 11.90625 4.449219 17.082031 3.460937 5.929687 3.460937 13.265625 0 19.199219-3.027344 5.160156-4.566407 11.058593-4.449219 17.039062h16c-.109375-3.386719.792969-6.730469 2.59375-9.601562 3.027344-5.164063 4.566406-11.066407 4.445312-17.054688.121094-5.992188-1.417968-11.902344-4.445312-17.070312-1.796875-2.875-2.699219-6.214844-2.59375-9.601563-.109375-3.386719.792969-6.726563 2.59375-9.601563 3.027344-5.167968 4.566406-11.078124 4.445312-17.070312zm0 0"/></svg>